<?xml version="1.0" encoding="UTF-8" standalone="no"?>
<svg
   data-v-423bf9ae=""
   viewBox="0 0 431 90"
   class="iconLeft"
   version="1.1"
   id="svg2"
   sodipodi:docname="vividus-logo.svg"
   inkscape:export-filename="../../default.svg"
   inkscape:export-xdpi="96"
   inkscape:export-ydpi="96"
   inkscape:version="1.3.2 (091e20ef0f, 2023-11-25)"
   xmlns:inkscape="http://www.inkscape.org/namespaces/inkscape"
   xmlns:sodipodi="http://sodipodi.sourceforge.net/DTD/sodipodi-0.dtd"
   xmlns="http://www.w3.org/2000/svg"
   xmlns:svg="http://www.w3.org/2000/svg">
  <defs
     id="defs2" />
  <sodipodi:namedview
     id="namedview2"
     pagecolor="#ffffff"
     bordercolor="#000000"
     borderopacity="0.25"
     inkscape:showpageshadow="2"
     inkscape:pageopacity="0.0"
     inkscape:pagecheckerboard="0"
     inkscape:deskcolor="#d1d1d1"
     inkscape:zoom="3.037123"
     inkscape:cx="215.5"
     inkscape:cy="45.10848"
     inkscape:window-width="1920"
     inkscape:window-height="1008"
     inkscape:window-x="0"
     inkscape:window-y="0"
     inkscape:window-maximized="1"
     inkscape:current-layer="svg2" />
  <!---->
  <!---->
  <!---->
  <g
     data-v-423bf9ae=""
     id="ade914bc-dbf7-4dc8-a4aa-6e9652f3bdec"
     fill="#ffdb1d"
     transform="matrix(6.543076038360596,0,0,6.543076038360596,93.62323760986328,-38.78409194946289)"
     style="fill:#ff4f00;fill-opacity:1">
    <path
       d="M0.07 8.43L2.87 8.43L4.28 14.49L4.41 14.49L5.82 8.43L8.62 8.43L6.52 17.18L2.17 17.18L0.07 8.43ZM9.39 8.43L12.19 8.43L12.19 17.18L9.39 17.18L9.39 8.43ZM12.96 8.43L15.76 8.43L17.18 14.49L17.30 14.49L18.72 8.43L21.52 8.43L19.42 17.18L15.06 17.18L12.96 8.43ZM22.29 8.43L25.09 8.43L25.09 17.18L22.29 17.18L22.29 8.43ZM26.49 8.43L30.39 8.43Q32.05 8.43 32.93 8.81Q33.81 9.20 34.17 10.13Q34.54 11.06 34.54 12.81L34.54 12.81Q34.54 14.56 34.17 15.48Q33.81 16.41 32.93 16.79Q32.05 17.18 30.39 17.18L30.39 17.18L26.49 17.18L26.49 8.43ZM29.29 10.61L29.29 14.99L30.44 14.99Q31.05 14.99 31.29 14.80Q31.53 14.62 31.53 14.11L31.53 14.11L31.53 11.49Q31.53 10.99 31.29 10.80Q31.05 10.61 30.44 10.61L30.44 10.61L29.29 10.61ZM39.38 17.39Q37.81 17.39 37.00 17.09Q36.19 16.79 35.85 16.05Q35.52 15.32 35.52 13.90L35.52 13.90L35.52 8.43L38.32 8.43L38.32 14.99L39.44 14.99Q40.07 14.99 40.27 14.85Q40.47 14.70 40.47 14.25L40.47 14.25L40.47 8.43L43.27 8.43L43.27 13.90Q43.27 15.30 42.94 16.04Q42.60 16.79 41.78 17.09Q40.95 17.39 39.38 17.39L39.38 17.39ZM44.58 14.57Q45.98 15.02 47.42 15.02L47.42 15.02Q48.13 15.02 48.55 14.95L48.55 14.95L48.55 14.18L47.29 14.07Q46.20 13.97 45.55 13.67Q44.90 13.37 44.60 12.81Q44.31 12.25 44.31 11.35L44.31 11.35Q44.31 10.18 44.65 9.50Q44.98 8.82 45.73 8.52Q46.48 8.22 47.80 8.22L47.80 8.22Q49.52 8.22 51.09 8.64L51.09 8.64L50.74 10.88Q50.01 10.72 49.50 10.66Q49 10.60 48.47 10.60L48.47 10.60Q47.75 10.60 47.32 10.67L47.32 10.67L47.32 11.42L48.33 11.52Q50.04 11.69 50.80 12.37Q51.56 13.05 51.56 14.39L51.56 14.39Q51.56 15.95 50.67 16.67Q49.77 17.39 47.84 17.39L47.84 17.39Q45.85 17.39 44.18 16.88L44.18 16.88L44.58 14.57Z"
       id="path1"
       style="fill:#ff4f00;fill-opacity:1" />
  </g>
  <!---->
  <g
     data-v-423bf9ae=""
     id="c1b4df2b-b38d-4ac9-8b9b-bf58e23e44ad"
     transform="matrix(2.8125,0,0,2.8125,-7.1699981689453125,0)"
     stroke="none"
     fill="#ffdb1d"
     style="fill:#ff4f00;fill-opacity:1"
     inkscape:export-filename="../../default.svg"
     inkscape:export-xdpi="96"
     inkscape:export-ydpi="96">
    <path
       d="M2.83 18.247l26.34-9.124L2.83 0zM29.17 32V13.753L2.83 22.877z"
       id="path2"
       style="fill:#ff4f00;fill-opacity:1" />
  </g>
  <!---->
</svg>
