<?xml version="1.0" encoding="UTF-8" standalone="no"?>
<svg
   data-v-fde0c5aa=""
   viewBox="0 0 66000 13599.06"
   class="iconLeft"
   version="1.1"
   id="svg3"
   width="66000"
   height="13599.06"
   xmlns="http://www.w3.org/2000/svg"
   xmlns:svg="http://www.w3.org/2000/svg">
  <!---->
  <defs
     data-v-fde0c5aa=""
     id="defs1">
    <!---->
  </defs>
  <rect
     data-v-fde0c5aa=""
     fill="#ffffff"
     x="-12000"
     y="-38200.469"
     width="300"
     height="300"
     class="logo-background-square"
     id="rect1" />
  <defs
     data-v-fde0c5aa=""
     id="defs2">
    <!---->
  </defs>
  <g
     data-v-fde0c5aa=""
     id="7caf6a57-d52d-4449-80e2-50cfe7aaa9a8"
     fill="#ffab2e"
     transform="matrix(3.2955441,0,0,3.2955441,-11909.918,-38092.668)"
     style="fill:#ff4f00;fill-opacity:1">
    <path
       d="m 0.07,8.43 h 2.8 l 1.41,6.06 H 4.41 L 5.82,8.43 h 2.8 l -2.1,8.75 H 2.17 Z m 9.32,0 h 2.8 v 8.75 h -2.8 z m 3.57,0 h 2.8 l 1.42,6.06 h 0.12 l 1.42,-6.06 h 2.8 l -2.1,8.75 h -4.36 z m 9.33,0 h 2.8 v 8.75 h -2.8 z m 4.2,0 h 3.9 q 1.66,0 2.54,0.38 0.88,0.39 1.24,1.32 0.37,0.93 0.37,2.68 v 0 q 0,1.75 -0.37,2.67 -0.36,0.93 -1.24,1.31 -0.88,0.39 -2.54,0.39 v 0 h -3.9 z m 2.8,2.18 v 4.38 h 1.15 q 0.61,0 0.85,-0.19 0.24,-0.18 0.24,-0.69 v 0 -2.62 q 0,-0.5 -0.24,-0.69 -0.24,-0.19 -0.85,-0.19 v 0 z m 10.09,6.78 q -1.57,0 -2.38,-0.3 -0.81,-0.3 -1.15,-1.04 -0.33,-0.73 -0.33,-2.15 v 0 -5.47 h 2.8 v 6.56 h 1.12 q 0.63,0 0.83,-0.14 0.2,-0.15 0.2,-0.6 v 0 -5.82 h 2.8 v 5.47 q 0,1.4 -0.33,2.14 -0.34,0.75 -1.16,1.05 -0.83,0.3 -2.4,0.3 z m 5.2,-2.82 q 1.4,0.45 2.84,0.45 v 0 q 0.71,0 1.13,-0.07 v 0 -0.77 l -1.26,-0.11 q -1.09,-0.1 -1.74,-0.4 -0.65,-0.3 -0.95,-0.86 -0.29,-0.56 -0.29,-1.46 v 0 q 0,-1.17 0.34,-1.85 0.33,-0.68 1.08,-0.98 0.75,-0.3 2.07,-0.3 v 0 q 1.72,0 3.29,0.42 v 0 l -0.35,2.24 Q 50.01,10.72 49.5,10.66 49,10.6 48.47,10.6 v 0 q -0.72,0 -1.15,0.07 v 0 0.75 l 1.01,0.1 q 1.71,0.17 2.47,0.85 0.76,0.68 0.76,2.02 v 0 q 0,1.56 -0.89,2.28 -0.9,0.72 -2.83,0.72 v 0 q -1.99,0 -3.66,-0.51 v 0 z"
       id="path2"
       style="fill:#ff4f00;fill-opacity:1" />
  </g>
  <defs
     data-v-fde0c5aa=""
     id="defs3">
    <!---->
  </defs>
  <g
     data-v-fde0c5aa=""
     id="504961b1-3fb8-48a2-9a6f-fc65a508d3e2"
     stroke="none"
     fill="#ffab2e"
     transform="matrix(1.4165689,0,0,1.4165689,-11964.009,-38073.134)"
     style="fill:#ff4f00;fill-opacity:1">
    <path
       d="M 2.83,18.247 29.17,9.123 2.83,0 Z M 29.17,32 V 13.753 L 2.83,22.877 Z"
       id="path3"
       style="fill:#ff4f00;fill-opacity:1" />
  </g>
  <!---->
</svg>
